<?xml version="1.0" standalone="no"?>
<!DOCTYPE svg PUBLIC "-//W3C//DTD SVG 20010904//EN"
 "http://www.w3.org/TR/2001/REC-SVG-20010904/DTD/svg10.dtd">
<svg version="1.0" xmlns="http://www.w3.org/2000/svg"
 width="399.000000pt" height="254.000000pt" viewBox="0 0 399.000000 254.000000"
 preserveAspectRatio="xMidYMid meet">
<metadata>
Created by potrace 1.15, written by Peter Selinger 2001-2017
</metadata>
<g transform="translate(0.000000,254.000000) scale(0.100000,-0.100000)"
fill="#000000" stroke="none">
<path d="M460 2388 c-46 -13 -87 -44 -105 -78 -27 -53 -20 -221 30 -648 l25
-224 -36 -66 c-33 -59 -36 -71 -31 -118 6 -57 28 -111 64 -160 15 -20 23 -45
23 -71 0 -60 -29 -325 -46 -428 -20 -116 -13 -166 31 -213 l33 -37 670 0 c665
0 671 0 699 21 41 31 57 99 43 189 -20 126 -49 389 -50 438 0 44 12 84 30 97
15 11 60 98 60 117 0 34 24 46 75 38 57 -8 129 -46 315 -165 282 -181 362
-210 475 -175 75 24 141 84 184 169 75 148 170 194 311 153 30 -9 107 -47 170
-85 284 -169 391 -223 438 -221 27 1 27 1 3 8 -37 10 -38 31 -2 31 26 0 31 -4
31 -25 0 -16 6 -25 15 -25 8 0 15 5 15 10 0 6 -4 10 -10 10 -22 0 -8 26 20 37
16 6 30 16 30 22 0 7 -11 6 -31 -5 -49 -25 -128 -1 -254 77 -57 35 -120 71
-280 162 -201 113 -347 102 -452 -33 -23 -30 -42 -60 -43 -66 -1 -24 -65 -107
-105 -134 -103 -71 -182 -52 -430 106 -203 129 -344 204 -377 203 -21 -1 -21
-1 4 -10 36 -14 26 -37 -13 -31 -27 4 -30 8 -26 29 4 23 2 25 -27 20 -32 -5
-33 -4 -51 49 -10 30 -24 58 -30 62 -21 13 -24 40 -14 129 33 293 41 368 49
458 l10 100 -148 148 -147 147 -555 -1 c-335 0 -569 -5 -590 -11z m1043 -195
c-5 -109 -4 -120 15 -143 20 -25 22 -25 156 -23 135 3 136 3 136 -20 0 -12 -7
-89 -15 -172 -27 -270 -45 -508 -45 -610 0 -101 0 -101 -32 -131 -57 -52 -98
-70 -168 -73 -278 -12 -456 -15 -613 -9 -100 4 -213 8 -252 9 -64 2 -75 6
-122 41 -29 21 -56 46 -61 56 -5 9 -12 87 -16 172 -4 85 -11 185 -16 222 -6
37 -17 152 -25 255 -41 501 -41 489 2 523 25 19 40 20 543 20 l518 0 -5 -117z
m267 -1513 c25 -194 26 -183 -8 -221 l-30 -34 -607 2 c-539 2 -609 4 -631 18
-45 29 -49 53 -30 187 10 68 20 180 23 251 6 118 7 126 23 112 9 -8 20 -15 24
-15 5 0 21 -11 38 -25 16 -14 38 -25 48 -25 10 0 22 -4 25 -10 3 -5 15 -10 26
-10 10 0 19 -4 19 -8 0 -5 26 -15 57 -22 31 -7 64 -16 73 -20 54 -27 355 -45
460 -27 109 19 213 43 245 56 67 29 122 58 135 71 10 10 45 31 63 36 9 4 18
11 18 18 1 6 5 -47 10 -119 4 -71 13 -168 19 -215z m-380 262 c-19 -2 -41 -8
-47 -14 -7 -6 -87 -12 -180 -15 -141 -3 -183 -1 -258 15 l-90 20 305 -1 c168
-1 289 -3 270 -5z"/>
<path d="M1046 2120 c-64 -20 -89 -64 -101 -178 -5 -56 -4 -64 17 -85 13 -12
38 -45 56 -73 29 -45 31 -54 21 -82 -9 -25 -26 -40 -81 -69 -38 -20 -83 -49
-100 -65 l-30 -28 7 -93 c4 -50 8 -93 9 -94 0 0 53 -3 117 -5 l117 -3 12 108
c8 69 8 112 2 120 -5 7 -12 29 -16 50 -6 33 -4 38 19 49 19 8 31 8 50 0 28
-13 30 -29 12 -82 -10 -27 -10 -55 0 -130 7 -52 12 -99 13 -105 0 -6 43 -9
115 -7 l115 3 0 105 0 104 -52 33 c-29 19 -73 44 -98 58 -65 35 -72 70 -29
135 18 27 43 58 55 70 20 20 22 28 17 110 -3 49 -11 98 -18 109 -19 31 -175
62 -229 45z"/>
<path d="M634 1215 c-4 -9 0 -23 8 -32 25 -24 422 -39 709 -26 241 12 268 17
253 57 -6 15 -15 16 -78 9 -92 -10 -742 -10 -824 0 -53 7 -63 6 -68 -8z"/>
<path d="M631 802 c-20 -38 0 -44 160 -54 160 -10 757 -4 797 8 18 5 22 13 20
33 l-3 26 -140 -5 c-185 -7 -627 -4 -737 4 -78 6 -88 5 -97 -12z"/>
</g>
</svg>
